<svg width="163" height="49" viewBox="0 0 163 49" fill="none" xmlns="http://www.w3.org/2000/svg">
<path d="M36.912 30.128H39.312V38H26.208L19.008 23.12L16.8 24.944V30.128H19.104V38H0.96V30.128H3.36V8.528H0.96V0.655997H19.104V8.528H16.8V14.864L24.24 8.528H21.216V0.655997H39.072V8.528H36.672L28.656 15.152L36.912 30.128ZM54.7774 38.672C50.2334 38.672 46.6814 37.488 44.1214 35.12C41.5614 32.72 40.2814 29.232 40.2814 24.656C40.2814 20.08 41.5614 16.608 44.1214 14.24C46.6814 11.84 50.2334 10.64 54.7774 10.64C59.3854 10.64 62.9534 11.856 65.4814 14.288C68.0094 16.688 69.2734 20.144 69.2734 24.656C69.2734 29.232 67.9934 32.72 65.4334 35.12C62.8734 37.488 59.3214 38.672 54.7774 38.672ZM54.7774 30.128C55.7054 30.128 56.3934 29.888 56.8414 29.408C57.3214 28.896 57.5614 28.112 57.5614 27.056V22.256C57.5614 21.2 57.3214 20.432 56.8414 19.952C56.3934 19.44 55.7054 19.184 54.7774 19.184C53.8494 19.184 53.1454 19.44 52.6654 19.952C52.2174 20.432 51.9934 21.2 51.9934 22.256V27.056C51.9934 28.112 52.2174 28.896 52.6654 29.408C53.1454 29.888 53.8494 30.128 54.7774 30.128ZM82.4655 38.672C78.4335 38.672 74.5455 38.032 70.8015 36.752V29.648H78.5775V30.128C78.5775 31.664 79.5535 32.432 81.5055 32.432C83.2335 32.432 84.0975 31.84 84.0975 30.656C84.0975 30.016 83.8415 29.536 83.3295 29.216C82.8495 28.896 81.9855 28.624 80.7375 28.4L78.3375 27.968C73.3135 27.072 70.8015 24.224 70.8015 19.424C70.8015 16.64 71.8575 14.48 73.9695 12.944C76.0815 11.408 78.9295 10.64 82.5135 10.64C86.5135 10.64 89.8895 11.312 92.6415 12.656V19.328H85.3455V18.848C85.3455 18.208 85.1215 17.728 84.6735 17.408C84.2575 17.056 83.6335 16.88 82.8015 16.88C81.2015 16.88 80.4015 17.392 80.4015 18.416C80.4015 18.96 80.6255 19.376 81.0735 19.664C81.5215 19.952 82.3375 20.224 83.5215 20.48L86.2575 21.008C89.1055 21.552 91.1375 22.56 92.3535 24.032C93.5695 25.504 94.1775 27.392 94.1775 29.696C94.1775 32.608 93.1535 34.832 91.1055 36.368C89.0895 37.904 86.2095 38.672 82.4655 38.672ZM107.548 38.672C104.156 38.672 101.596 37.856 99.8681 36.224C98.1721 34.56 97.3241 31.776 97.3241 27.872V19.184H95.2121V11.312C96.4281 11.312 97.3401 11.008 97.9481 10.4C98.5561 9.76 98.8601 8.896 98.8601 7.808V5.648H109.036V11.312H115.516V19.184H109.036V27.056C109.036 28.112 109.26 28.896 109.708 29.408C110.188 29.888 110.892 30.128 111.82 30.128C113.036 30.128 114.364 29.984 115.804 29.696V37.232C114.908 37.584 113.692 37.904 112.156 38.192C110.652 38.512 109.116 38.672 107.548 38.672ZM146.244 11.312V19.184H144.42L138.132 35.84C136.564 40.032 134.772 43.168 132.756 45.248C130.74 47.36 128.084 48.416 124.788 48.416C123.444 48.416 122.084 48.272 120.708 47.984C119.332 47.728 118.084 47.36 116.964 46.88V38.192H123.588V38.672C123.588 39.472 124.004 39.872 124.836 39.872C125.572 39.872 126.132 39.52 126.516 38.816L118.932 19.184H117.108V11.312H131.364V19.184H129.732L132.228 26.672L134.532 19.184H132.9V11.312H146.244ZM147.677 38.048V30.128H149.789V8.528H147.677V0.655997H160.829V30.128H162.941V38.048H147.677Z" fill="white"/>
</svg>
